<svg width="40" height="35" viewBox="0 0 40 35" fill="none" xmlns="http://www.w3.org/2000/svg">
<path d="M16.9676 2.70727L1.94741 27.7823C1.63773 28.3186 1.47387 28.9266 1.47214 29.5459C1.4704 30.1652 1.63086 30.7742 1.93753 31.3122C2.2442 31.8502 2.68641 32.2986 3.22015 32.6126C3.7539 32.9267 4.36057 33.0955 4.97983 33.1023H35.0202C35.6395 33.0955 36.2461 32.9267 36.7799 32.6126C37.3136 32.2986 37.7558 31.8502 38.0625 31.3122C38.3692 30.7742 38.5296 30.1652 38.5279 29.5459C38.5262 28.9266 38.3623 28.3186 38.0526 27.7823L23.0324 2.70727C22.7163 2.1861 22.2712 1.7552 21.74 1.45615C21.2089 1.1571 20.6096 1 20 1C19.3905 1 18.7912 1.1571 18.26 1.45615C17.7289 1.7552 17.2837 2.1861 16.9676 2.70727V2.70727Z" stroke="#FCB53B" stroke-width="2" stroke-linecap="round" stroke-linejoin="round"/>
<path d="M20 11.7998V18.9998" stroke="#25282B" stroke-width="2.6" stroke-linecap="round" stroke-linejoin="round"/>
<path d="M20 26.2002H20.018" stroke="#25282B" stroke-width="2.6" stroke-linecap="round" stroke-linejoin="round"/>
</svg>
